<svg width="188" height="165" viewBox="0 0 188 165" fill="none" xmlns="http://www.w3.org/2000/svg">
<path d="M93.0291 106.046C94.067 102.614 94.4331 99.9373 95.6509 97.7353C97.888 93.6762 100.749 89.9681 103.127 85.9942C107.295 79.0443 111.153 71.9058 115.421 65.0167C117.834 61.1191 120.395 57.1605 123.63 53.9657C127.424 50.2209 132.773 50.0847 136.513 52.5836C140.642 55.3458 142.068 60.6403 139.508 66.0078C137.873 69.4473 135.852 72.9536 133.171 75.6084C124.641 84.0452 115.776 92.1552 106.917 100.255C104.649 102.327 102.076 104.2 99.3583 105.615C97.9422 106.371 95.8804 105.915 93.0291 106.046Z" fill="#EDBC5A"/>
<path d="M37.5787 100.572C36.6844 100.905 35.5992 101.683 34.6501 101.545C33.6711 101.39 32.3768 100.537 32.0187 99.6637C31.15 97.5375 30.5953 95.2596 30.1776 92.9828C27.744 79.6531 25.333 66.3096 23.0711 52.9472C22.63 50.328 22.4909 47.5091 22.9615 44.9089C23.8579 39.9828 28.1552 36.3381 32.5788 36.0925C36.9439 35.8525 41.3243 39.2591 42.8247 44.12C43.169 45.2174 43.4604 46.3785 43.4996 47.5234C44.0344 64.2286 43.1803 80.8167 39.0566 97.119C38.7876 98.2276 38.1621 99.2434 37.5787 100.572Z" fill="#EDBC5A"/>
<path d="M163.752 119.955C162.221 121.01 159.894 123.292 157.101 124.402C146.973 128.452 136.697 132.138 126.448 135.868C125.009 136.391 123.389 136.516 121.841 136.59C119.883 136.703 117.597 136.589 117.171 134.28C116.943 133.062 117.936 131.449 118.735 130.264C119.345 129.362 120.517 128.801 121.49 128.16C130.94 121.99 140.343 115.738 149.904 109.744C152.48 108.134 155.463 106.96 158.422 106.251C161.148 105.606 163.891 106.366 165.499 109.104C166.982 111.643 167.083 114.234 165.655 116.842C165.279 117.544 164.844 118.183 163.752 119.955Z" fill="#EDBC5A"/>
</svg>
